<svg id="_0290_note_taking_1" data-name="0290_note_taking_1" xmlns="http://www.w3.org/2000/svg" viewBox="0 0 500 500" data-imageid="note-taking-1-99" imageName="Note Taking 1" class="illustrations_image" style="width: 188px;"><defs><style>.cls-1_note-taking-1-99{fill:#fff;}.cls-2_note-taking-1-99{fill:#231f20;}.cls-3_note-taking-1-99{fill:#d1d3d4;}.cls-4_note-taking-1-99{fill:#68e1fd;}</style></defs><g id="Left_Hand_and_Note_note-taking-1-99" data-name="Left Hand and Note"><path class="cls-1_note-taking-1-99" d="M146.27,383.59s8.93-53.33,12-64.43c10-35.74-7.05-142-7-143.07s-52.46,50-54.53,70.48c-1,9.76-.92,48.37-.06,62.34.54,8.74-14.56,67.8-14.56,67.8Z"/><path class="cls-2_note-taking-1-99" d="M146.28,384.29h-.08L82.05,377.4a.72.72,0,0,1-.5-.29.74.74,0,0,1-.1-.58c.15-.59,15.06-59,14.53-67.58-.84-13.56-.93-52.54.07-62.45,1.09-10.78,15.73-29.47,27.83-43.25C134.66,191,150,175.38,151.29,175.38h0a.72.72,0,0,1,.67.73c0,.13.19,1.37.44,3.08,10.07,69.5,12.4,119.28,6.57,140.15-3.06,10.94-11.93,63.83-12,64.36A.7.7,0,0,1,146.28,384.29ZM83,376.1l62.69,6.72c1-6.13,9.05-53.51,11.94-63.85,5.78-20.69,3.44-70.26-6.61-139.58-.13-.92-.22-1.57-.29-2-6.9,6-51.42,50.83-53.29,69.29-1,9.86-.9,48.7-.06,62.22C97.89,317.16,84.86,368.78,83,376.1Z"/><polygon class="cls-1_note-taking-1-99" points="117.11 156.29 120.64 149.68 336.26 254.68 332.74 261.28 154.77 306.04 117.11 156.29"/><path class="cls-2_note-taking-1-99" d="M154.77,306.74a.7.7,0,0,1-.68-.53L116.43,156.46a.62.62,0,0,1,.06-.5l3.53-6.61a.71.71,0,0,1,.92-.3l215.63,105a.7.7,0,0,1,.36.41.7.7,0,0,1-.05.55l-3.53,6.6a.67.67,0,0,1-.44.35l-178,44.76ZM117.85,156.38l37.43,148.81,177-44.51,3.05-5.69L120.94,150.61Z"/><rect class="cls-1_note-taking-1-99" x="136.7" y="124.97" width="183.51" height="154.42" transform="translate(-42.42 61.83) rotate(-14.12)"/><path class="cls-2_note-taking-1-99" d="M158.3,300.14a.78.78,0,0,1-.36-.1.73.73,0,0,1-.32-.43L120,149.85a.7.7,0,0,1,.51-.85l178-44.76a.75.75,0,0,1,.53.08.73.73,0,0,1,.32.43l37.66,149.76a.7.7,0,0,1-.5.85l-178,44.76ZM121.49,150.19l37.32,148.4,176.61-44.42-37.33-148.4Z"/><circle class="cls-2_note-taking-1-99" cx="156.06" cy="153.82" r="5.03"/><path class="cls-2_note-taking-1-99" d="M156.06,159.56a5.74,5.74,0,1,1,5.56-7.14h0a5.74,5.74,0,0,1-4.16,7A5.66,5.66,0,0,1,156.06,159.56Zm0-10.08a4.36,4.36,0,0,0-4.2,5.4,4.33,4.33,0,1,0,8.4-2.12A4.34,4.34,0,0,0,156.06,149.48Z"/><rect class="cls-1_note-taking-1-99" x="150.55" y="131.94" width="6.04" height="23.51" rx="2.16" transform="translate(-30.41 41.8) rotate(-14.12)"/><path class="cls-2_note-taking-1-99" d="M155.71,155.89a3.72,3.72,0,0,1-3.61-2.82l-4.26-16.93a3.72,3.72,0,1,1,7.22-1.82l4.26,16.94a3.72,3.72,0,0,1-2.71,4.51h0A3.48,3.48,0,0,1,155.71,155.89Zm.73-.8h0Zm-5-22.18a2.2,2.2,0,0,0-.56.07,2.31,2.31,0,0,0-1.68,2.81l4.26,16.94a2.32,2.32,0,0,0,2.81,1.69h0a2.36,2.36,0,0,0,1.43-1.06,2.32,2.32,0,0,0,.26-1.76l-4.26-16.94A2.34,2.34,0,0,0,151.44,132.91Z"/><circle class="cls-2_note-taking-1-99" cx="184.38" cy="146.7" r="5.03"/><path class="cls-2_note-taking-1-99" d="M184.38,152.43a5.72,5.72,0,1,1,1.4-.17A5.64,5.64,0,0,1,184.38,152.43Zm0-10.07a4.34,4.34,0,1,0,1.06,8.54,4.35,4.35,0,0,0,3.15-5.26A4.35,4.35,0,0,0,184.38,142.36Z"/><rect class="cls-1_note-taking-1-99" x="178.88" y="124.82" width="6.04" height="23.51" rx="2.16" transform="translate(-27.82 48.49) rotate(-14.12)"/><path class="cls-2_note-taking-1-99" d="M184,148.76a3.71,3.71,0,0,1-3.61-2.81L176.16,129a3.72,3.72,0,1,1,7.22-1.81l4.26,16.93a3.74,3.74,0,0,1-2.7,4.52h0A3.59,3.59,0,0,1,184,148.76Zm.74-.79h0Zm-5-22.19a2.78,2.78,0,0,0-.57.07,2.33,2.33,0,0,0-1.68,2.82l4.26,16.94a2.32,2.32,0,0,0,4.5-1.14L182,127.54A2.31,2.31,0,0,0,179.77,125.78Z"/><circle class="cls-2_note-taking-1-99" cx="212.7" cy="139.57" r="5.03"/><path class="cls-2_note-taking-1-99" d="M212.7,145.31a5.77,5.77,0,1,1,1.4-.18A5.54,5.54,0,0,1,212.7,145.31Zm0-10.07a4.34,4.34,0,0,0-3.73,2.11,4.34,4.34,0,1,0,7.93,1.17h0a4.32,4.32,0,0,0-4.2-3.28Z"/><rect class="cls-1_note-taking-1-99" x="207.2" y="117.7" width="6.04" height="23.51" rx="2.16" transform="translate(-25.23 55.19) rotate(-14.12)"/><path class="cls-2_note-taking-1-99" d="M212.34,141.64a3.73,3.73,0,0,1-3.6-2.82l-4.26-16.93a3.72,3.72,0,0,1,7.22-1.82L216,137a3.73,3.73,0,0,1-2.7,4.52A4.13,4.13,0,0,1,212.34,141.64Zm-4.24-23a2.3,2.3,0,0,0-.58.07,2.33,2.33,0,0,0-1.68,2.82l4.26,16.93a2.32,2.32,0,0,0,2.82,1.69h0a2.33,2.33,0,0,0,1.68-2.82l-4.26-16.94a2.31,2.31,0,0,0-1.06-1.42A2.26,2.26,0,0,0,208.1,118.66Z"/><circle class="cls-2_note-taking-1-99" cx="241.03" cy="132.45" r="5.03"/><path class="cls-2_note-taking-1-99" d="M241,138.19a5.74,5.74,0,1,1,5.56-7.14h0a5.73,5.73,0,0,1-4.17,7A5.52,5.52,0,0,1,241,138.19Zm0-10.08a4.27,4.27,0,0,0-1.05.14,4.33,4.33,0,0,0-1.17,7.92,4.34,4.34,0,0,0,6.43-4.78h0A4.36,4.36,0,0,0,241,128.11Z"/><rect class="cls-1_note-taking-1-99" x="235.52" y="110.57" width="6.04" height="23.51" rx="2.16" transform="translate(-22.63 61.88) rotate(-14.12)"/><path class="cls-2_note-taking-1-99" d="M240.66,134.52a3.73,3.73,0,0,1-3.6-2.82l-4.26-16.93a3.71,3.71,0,0,1,.42-2.82,3.66,3.66,0,0,1,2.28-1.7A3.71,3.71,0,0,1,240,113l4.26,16.94a3.71,3.71,0,0,1-2.7,4.51h0A3.57,3.57,0,0,1,240.66,134.52Zm-4.25-23a2.15,2.15,0,0,0-.56.07,2.32,2.32,0,0,0-1.69,2.81l4.26,16.94a2.33,2.33,0,0,0,1.06,1.43,2.4,2.4,0,0,0,1.76.26h0a2.24,2.24,0,0,0,1.42-1.06,2.28,2.28,0,0,0,.26-1.75l-4.26-16.94A2.32,2.32,0,0,0,236.41,111.54Z"/><circle class="cls-2_note-taking-1-99" cx="269.35" cy="125.33" r="5.03"/><path class="cls-2_note-taking-1-99" d="M269.35,131.06a5.74,5.74,0,1,1,5.56-7.13h0a5.75,5.75,0,0,1-4.16,7A6.16,6.16,0,0,1,269.35,131.06Zm0-10.07a4.27,4.27,0,0,0-1.06.13,4.34,4.34,0,1,0,5.26,3.15h0A4.33,4.33,0,0,0,269.35,121Z"/><rect class="cls-1_note-taking-1-99" x="263.84" y="103.45" width="6.04" height="23.51" rx="2.16" transform="translate(-20.04 68.57) rotate(-14.12)"/><path class="cls-2_note-taking-1-99" d="M269,127.39a3.73,3.73,0,0,1-3.61-2.81l-4.26-16.94a3.72,3.72,0,1,1,7.22-1.81l4.26,16.93a3.73,3.73,0,0,1-2.7,4.52h0A3.54,3.54,0,0,1,269,127.39Zm.74-.79h0Zm-5-22.19a2.2,2.2,0,0,0-.56.07,2.33,2.33,0,0,0-1.69,2.82l4.26,16.94a2.32,2.32,0,0,0,4.5-1.13L267,106.17A2.33,2.33,0,0,0,264.73,104.41Z"/><line class="cls-1_note-taking-1-99" x1="158.3" y1="299.44" x2="154.77" y2="306.04"/><path class="cls-2_note-taking-1-99" d="M154.77,306.74a.67.67,0,0,1-.33-.08.71.71,0,0,1-.29-1l3.53-6.6a.7.7,0,0,1,1.24.66l-3.53,6.6A.7.7,0,0,1,154.77,306.74Z"/><circle class="cls-3_note-taking-1-99" cx="153.82" cy="182.01" r="2.61"/><path class="cls-3_note-taking-1-99" d="M283.15,150.85a5,5,0,0,1-3.17-.18,4.12,4.12,0,0,0-2.69-.17,4.07,4.07,0,0,0-2.28,1.42,5.33,5.33,0,0,1-5.89,1.48,4.4,4.4,0,0,0-5,1.25,5.29,5.29,0,0,1-5.88,1.47,4.46,4.46,0,0,0-5,1.25,5.28,5.28,0,0,1-5.88,1.48,4.44,4.44,0,0,0-5,1.25,5.32,5.32,0,0,1-5.88,1.48,4.4,4.4,0,0,0-5,1.25,5.32,5.32,0,0,1-5.88,1.48,4.42,4.42,0,0,0-5,1.24,5.28,5.28,0,0,1-5.88,1.48,4.46,4.46,0,0,0-5,1.25,5.32,5.32,0,0,1-5.88,1.48,4.4,4.4,0,0,0-5,1.25,5.32,5.32,0,0,1-5.88,1.48,4.4,4.4,0,0,0-5,1.25,5.29,5.29,0,0,1-5.88,1.47,4.16,4.16,0,0,0-2.68-.16,4.11,4.11,0,0,0-2.28,1.41,5.32,5.32,0,0,1-5.88,1.48,4.08,4.08,0,0,0-2.68-.17.44.44,0,1,1-.21-.85,5,5,0,0,1,3.17.18,4.4,4.4,0,0,0,5-1.25,5.32,5.32,0,0,1,5.88-1.48,4.42,4.42,0,0,0,5-1.24,5.28,5.28,0,0,1,5.88-1.48,4.16,4.16,0,0,0,2.68.16,4.11,4.11,0,0,0,2.28-1.41,5.32,5.32,0,0,1,5.88-1.48,4.4,4.4,0,0,0,5-1.25,5.32,5.32,0,0,1,5.88-1.48,4.09,4.09,0,0,0,2.68.17,4.18,4.18,0,0,0,2.29-1.41,5.27,5.27,0,0,1,5.88-1.48,4.44,4.44,0,0,0,5-1.25,5.32,5.32,0,0,1,5.88-1.48,4.4,4.4,0,0,0,5-1.25,5.32,5.32,0,0,1,5.88-1.48,4.4,4.4,0,0,0,5-1.25,5.29,5.29,0,0,1,5.88-1.47,4.16,4.16,0,0,0,2.68.16,4.11,4.11,0,0,0,2.29-1.41,5.28,5.28,0,0,1,5.88-1.48,4.46,4.46,0,0,0,5-1.25,5.31,5.31,0,0,1,5.88-1.48,4.18,4.18,0,0,0,2.69.16,4.11,4.11,0,0,0,2.28-1.41,5.07,5.07,0,0,1,2.71-1.67.46.46,0,0,1,.54.33.44.44,0,0,1-.32.53,4.13,4.13,0,0,0-2.29,1.42A5,5,0,0,1,283.15,150.85Z"/><path class="cls-3_note-taking-1-99" d="M286,162a5,5,0,0,1-3.18-.18,4.46,4.46,0,0,0-5,1.25,5.32,5.32,0,0,1-5.88,1.48,4.42,4.42,0,0,0-5,1.25,5,5,0,0,1-2.7,1.66,5.08,5.08,0,0,1-3.18-.18,4.4,4.4,0,0,0-5,1.25,5.32,5.32,0,0,1-5.88,1.48,4.42,4.42,0,0,0-5,1.24,5.28,5.28,0,0,1-5.88,1.48,4.16,4.16,0,0,0-2.68-.16,4.11,4.11,0,0,0-2.28,1.41,5.32,5.32,0,0,1-5.88,1.48,4.09,4.09,0,0,0-2.68-.17,4.15,4.15,0,0,0-2.29,1.42,5.32,5.32,0,0,1-5.88,1.48,4.4,4.4,0,0,0-5,1.25,5.29,5.29,0,0,1-5.88,1.47,4.16,4.16,0,0,0-2.68-.16,4.11,4.11,0,0,0-2.28,1.41,5.32,5.32,0,0,1-5.88,1.48,4.4,4.4,0,0,0-5,1.25,5.32,5.32,0,0,1-5.88,1.48,4.4,4.4,0,0,0-5,1.25,5.13,5.13,0,0,1-2.71,1.66,5,5,0,0,1-3.17-.19,4.16,4.16,0,0,0-2.68-.16.44.44,0,1,1-.22-.86,5,5,0,0,1,3.17.18,4.09,4.09,0,0,0,2.68.17,4.18,4.18,0,0,0,2.29-1.41,5.26,5.26,0,0,1,5.87-1.48,4.46,4.46,0,0,0,5-1.25,5.3,5.3,0,0,1,5.87-1.48A4.09,4.09,0,0,0,199,183a4.13,4.13,0,0,0,2.29-1.42,5,5,0,0,1,2.7-1.66,5.08,5.08,0,0,1,3.18.18,4,4,0,0,0,2.67.17,4.14,4.14,0,0,0,2.29-1.41,5.28,5.28,0,0,1,5.88-1.48,4.16,4.16,0,0,0,2.68.16,4.11,4.11,0,0,0,2.28-1.41,5.32,5.32,0,0,1,5.88-1.48,4.09,4.09,0,0,0,2.68.17,4.19,4.19,0,0,0,2.29-1.42,5.3,5.3,0,0,1,5.87-1.48,4.09,4.09,0,0,0,2.68.17,4.18,4.18,0,0,0,2.29-1.41,5.26,5.26,0,0,1,5.87-1.48,4.46,4.46,0,0,0,5-1.25,5.32,5.32,0,0,1,5.88-1.48,4.46,4.46,0,0,0,5-1.25,5,5,0,0,1,2.7-1.66,5.08,5.08,0,0,1,3.18.18,4.07,4.07,0,0,0,2.68.17,4.12,4.12,0,0,0,2.28-1.42,5.33,5.33,0,0,1,5.89-1.48,4.08,4.08,0,0,0,2.68.17,4.19,4.19,0,0,0,2.29-1.42,5,5,0,0,1,2.71-1.66.44.44,0,1,1,.22.85,4.12,4.12,0,0,0-2.29,1.42A5,5,0,0,1,286,162Z"/><path class="cls-3_note-taking-1-99" d="M240.77,182.66a4.39,4.39,0,0,0-1.61,1.32,3.37,3.37,0,0,1-2,1.32,3.31,3.31,0,0,1-2.35-.24,4.27,4.27,0,0,0-2.89-.27,4.15,4.15,0,0,0-2.41,1.61,3.47,3.47,0,0,1-4.31,1.08,4.27,4.27,0,0,0-2.89-.27,4.21,4.21,0,0,0-2.42,1.61,3.5,3.5,0,0,1-4.31,1.08,4.37,4.37,0,0,0-5.31,1.33,3.25,3.25,0,0,1-2,1.32,3.32,3.32,0,0,1-2.35-.23,4.18,4.18,0,0,0-2.88-.27,4.25,4.25,0,0,0-2.42,1.6,3.49,3.49,0,0,1-4.31,1.09,4.35,4.35,0,0,0-5.3,1.33,3.47,3.47,0,0,1-4.31,1.08,4.39,4.39,0,0,0-5.31,1.34,3.47,3.47,0,0,1-4.31,1.08,4.23,4.23,0,0,0-2.88-.27.44.44,0,0,0-.32.54.44.44,0,0,0,.53.32,3.31,3.31,0,0,1,2.35.23,4.16,4.16,0,0,0,2.89.27,4.21,4.21,0,0,0,2.42-1.6,3.47,3.47,0,0,1,4.31-1.08,4.34,4.34,0,0,0,5.3-1.34,3.47,3.47,0,0,1,4.31-1.08,4.35,4.35,0,0,0,5.3-1.33,3.49,3.49,0,0,1,4.31-1.09,4.37,4.37,0,0,0,5.31-1.33,3.49,3.49,0,0,1,4.31-1.09,4.35,4.35,0,0,0,5.3-1.33,3.49,3.49,0,0,1,4.31-1.09,4.16,4.16,0,0,0,2.89.27,4.21,4.21,0,0,0,2.42-1.6,3.47,3.47,0,0,1,4.31-1.08,4.24,4.24,0,0,0,2.88.27,4.18,4.18,0,0,0,2.42-1.61,4,4,0,0,1,1.16-1Z"/><circle class="cls-3_note-taking-1-99" cx="163.6" cy="220.91" r="2.61"/><path class="cls-3_note-taking-1-99" d="M264.22,194.32a5.14,5.14,0,0,0-1.76,1.34,4.19,4.19,0,0,1-2.29,1.42,4.09,4.09,0,0,1-2.68-.17,5.32,5.32,0,0,0-5.88,1.48,4.11,4.11,0,0,1-2.28,1.41,4.16,4.16,0,0,1-2.68-.16,5.29,5.29,0,0,0-5.88,1.47,4.4,4.4,0,0,1-5,1.25,5.32,5.32,0,0,0-5.88,1.48,4.4,4.4,0,0,1-5,1.25,5.08,5.08,0,0,0-3.18-.18,5,5,0,0,0-2.7,1.66,4.46,4.46,0,0,1-5,1.25,5.28,5.28,0,0,0-5.88,1.48,4.42,4.42,0,0,1-5,1.24A5.32,5.32,0,0,0,197.4,212a4.4,4.4,0,0,1-5,1.25,5.32,5.32,0,0,0-5.88,1.48,4.11,4.11,0,0,1-2.28,1.41,4.16,4.16,0,0,1-2.68-.16,5,5,0,0,0-3.17-.19.44.44,0,0,0,.22.86,4.09,4.09,0,0,1,2.68.17,5.3,5.3,0,0,0,5.87-1.48,4.42,4.42,0,0,1,5-1.25,5.3,5.3,0,0,0,5.87-1.48,4.45,4.45,0,0,1,5-1.25,5.07,5.07,0,0,0,3.18.19,5,5,0,0,0,2.7-1.66,4.13,4.13,0,0,1,2.29-1.42,4.09,4.09,0,0,1,2.68.17,5.32,5.32,0,0,0,5.88-1.48,4.4,4.4,0,0,1,5-1.25,5.32,5.32,0,0,0,5.88-1.48,4.44,4.44,0,0,1,5-1.25,5.07,5.07,0,0,0,3.18.19,5,5,0,0,0,2.7-1.67,4.18,4.18,0,0,1,2.29-1.41,4.09,4.09,0,0,1,2.68.17,5.3,5.3,0,0,0,5.87-1.48,4.41,4.41,0,0,1,5-1.25,5.32,5.32,0,0,0,5.88-1.48,4.52,4.52,0,0,1,1.34-1.07Z"/><path class="cls-3_note-taking-1-99" d="M243.81,212.07l-.22.24a4.45,4.45,0,0,1-5,1.25,5.29,5.29,0,0,0-5.88,1.47,4.4,4.4,0,0,1-5,1.25,5.32,5.32,0,0,0-5.88,1.48,4.4,4.4,0,0,1-5,1.25,5,5,0,0,0-3.17-.18,5,5,0,0,0-2.71,1.66,4.44,4.44,0,0,1-5,1.25,5.28,5.28,0,0,0-5.88,1.48,4.15,4.15,0,0,1-2.28,1.41,4.07,4.07,0,0,1-2.68-.17,5.32,5.32,0,0,0-5.88,1.48,4.16,4.16,0,0,1-2.28,1.42,4.08,4.08,0,0,1-2.68-.17,5,5,0,0,0-3.17-.18.44.44,0,1,0,.21.85,4.09,4.09,0,0,1,2.68.17,5.32,5.32,0,0,0,5.88-1.48,4.11,4.11,0,0,1,2.28-1.41,4.16,4.16,0,0,1,2.68.16,5.28,5.28,0,0,0,5.88-1.48,4.42,4.42,0,0,1,5-1.24,5.32,5.32,0,0,0,5.88-1.48,4.4,4.4,0,0,1,5-1.25,5.32,5.32,0,0,0,5.88-1.48,4.45,4.45,0,0,1,5-1.25,5.26,5.26,0,0,0,5.87-1.48,4.18,4.18,0,0,1,2.29-1.41,4.09,4.09,0,0,1,2.68.17,5,5,0,0,0,3.17.18,4.91,4.91,0,0,0,2.55-1.5Z"/><circle class="cls-3_note-taking-1-99" cx="170.9" cy="249.94" r="2.61"/><path class="cls-3_note-taking-1-99" d="M186,245.7a4.16,4.16,0,0,1,2.68.16,5.26,5.26,0,0,0,5.87-1.48,4.14,4.14,0,0,1,2.29-1.41,4.09,4.09,0,0,1,2.68.17,5.3,5.3,0,0,0,5.87-1.48,4.42,4.42,0,0,1,5-1.25,5,5,0,0,0,3.17.18,4.93,4.93,0,0,0,2.7-1.66,4.46,4.46,0,0,1,5-1.25A5.28,5.28,0,0,0,227,236.2a4.42,4.42,0,0,1,5-1.24,5.32,5.32,0,0,0,5.88-1.48,4.4,4.4,0,0,1,5-1.25,5.08,5.08,0,0,0,3.18.18,5,5,0,0,0,2.7-1.66,4.19,4.19,0,0,1,2.29-1.42l.42-.07c0-.29,0-.58,0-.88a5.14,5.14,0,0,0-.61.1,5.07,5.07,0,0,0-2.71,1.66,4.11,4.11,0,0,1-2.28,1.41,4.16,4.16,0,0,1-2.68-.16,5.32,5.32,0,0,0-5.88,1.48,4.44,4.44,0,0,1-5,1.25,5.28,5.28,0,0,0-5.88,1.47A4.13,4.13,0,0,1,224.1,237a4.09,4.09,0,0,1-2.68-.17,5.32,5.32,0,0,0-5.88,1.48,4.4,4.4,0,0,1-5,1.25,5.32,5.32,0,0,0-5.88,1.48,4.11,4.11,0,0,1-2.28,1.41,4.16,4.16,0,0,1-2.68-.16,5.29,5.29,0,0,0-5.88,1.47,4.4,4.4,0,0,1-5,1.25,5,5,0,0,0-3.17-.18.44.44,0,0,0,.22.86Z"/><path class="cls-1_note-taking-1-99" d="M107.34,236.72C118,222.85,131.12,211.05,145,200.43c3.44-2.63,7.15-5.29,11.45-5.73s9.25,2.25,9.74,6.58c.39,3.41-1.93,6.45-4.12,9.06l-28.61,34.17c9,13.69,8.78,32.93-.6,46.26"/><path class="cls-2_note-taking-1-99" d="M132.84,291.47a.66.66,0,0,1-.4-.13.7.7,0,0,1-.17-1c9.14-13,9.39-32.11.59-45.46a.71.71,0,0,1,0-.83l28.62-34.18c2.19-2.63,4.31-5.45,4-8.53-.46-4-5.12-6.36-9-6-4.05.41-7.56,2.88-11.09,5.59-16.12,12.34-28,23.83-37.52,36.16a.7.7,0,1,1-1.11-.86c9.56-12.42,21.56-24,37.78-36.41,3.7-2.84,7.38-5.42,11.8-5.87s10,2.37,10.51,7.2c.41,3.63-1.89,6.72-4.28,9.58l-28.28,33.78c9,14,8.62,33.08-.9,46.6A.7.7,0,0,1,132.84,291.47Z"/><polygon class="cls-2_note-taking-1-99" points="152.88 396.29 161.91 325.13 92.95 317.45 73.11 396.29 152.88 396.29"/><path class="cls-2_note-taking-1-99" d="M152.87,397H73.11a.7.7,0,0,1-.68-.87l19.84-78.84a.71.71,0,0,1,.76-.53L162,324.44a.66.66,0,0,1,.47.26.7.7,0,0,1,.15.52l-9,71.15A.71.71,0,0,1,152.87,397ZM74,395.59h78.25l8.86-69.84-67.64-7.54Z"/></g><g id="Right_Hand_note-taking-1-99" data-name="Right Hand"><path class="cls-1_note-taking-1-99" d="M390.57,310.08l-42.8,32.74s-23.37-41-39.76-53.05-36.08-20.27-36.08-20.27c-2-5.08-25.17-28.75-16.32-28.28S305,261.81,310,261s13.39-10.36,7.6-19.89-10.17-19.31-20.42-15.92c-15.56,5.15-30.06,14.44-37,14.62s-15.14-5.76-7.8-15.64c8.38-11.3,30.65-25.42,50.75-31.26s50.65,26.85,63.71,54.66C379.38,263.49,387,296.38,390.57,310.08Z"/><path class="cls-2_note-taking-1-99" d="M347.77,343.52h-.14a.71.71,0,0,1-.47-.34c-.23-.41-23.48-41-39.57-52.83s-35.73-20.11-35.93-20.19a.73.73,0,0,1-.38-.39c-.62-1.59-3.69-5.42-6.94-9.48-7.65-9.55-12.57-16-11.2-18.68a2.39,2.39,0,0,1,2.51-1.08c4.66.25,17.44,5.61,29.8,10.81,10.92,4.58,22.22,9.31,24.44,8.95,2.38-.4,5.95-3.22,7.79-7.24a12,12,0,0,0-.68-11.6c-.59-1-1.16-1.95-1.73-2.91-4.94-8.36-9.2-15.57-17.87-12.7a184.53,184.53,0,0,0-19.85,8.3c-7.49,3.49-13.4,6.25-17.32,6.35-4.46.12-8.79-2.11-10.51-5.43-1.18-2.27-1.78-6.08,2.12-11.33,8.7-11.71,31.63-25.85,51.13-31.51,9.38-2.73,21.87,2.55,35.16,14.87a137.1,137.1,0,0,1,29.34,40.09c11.59,14.83,18.92,43.66,22.86,59.16.33,1.3.64,2.5.92,3.58a.69.69,0,0,1-.26.73l-42.8,32.74A.71.71,0,0,1,347.77,343.52ZM272.46,269c2.41,1,20.71,9,36,20.24s36.31,47,39.56,52.57l41.8-32c-.25-1-.52-2-.8-3.13-3.92-15.42-11.22-44.13-22.66-58.71a.64.64,0,0,1-.08-.14c-12.23-26-42.8-60.11-62.88-54.28-19.25,5.59-41.86,19.5-50.39,31-2.75,3.7-3.44,7.11-2,9.86s5.25,4.76,9.23,4.67c3.63-.09,9.72-2.93,16.76-6.22a188.19,188.19,0,0,1,20-8.36c9.73-3.23,14.48,4.81,19.51,13.32.57,1,1.14,1.93,1.73,2.9a13.43,13.43,0,0,1,.75,12.9c-1.85,4.05-5.64,7.5-8.83,8-2.44.42-11.16-3.14-25.21-9-11.68-4.91-24.92-10.47-29.33-10.7-.46,0-1,0-1.2.32-1,2.06,6.23,11.15,11.05,17.17C268.72,263.51,271.59,267.09,272.46,269Z"/><polygon class="cls-1_note-taking-1-99" points="235.5 233.76 234.57 248.46 219.94 242.71 212.15 239.65 220.26 237.6 235.5 233.76"/><path class="cls-2_note-taking-1-99" d="M234.57,249.16a.75.75,0,0,1-.26,0L211.9,240.3a.7.7,0,0,1-.45-.69A.72.72,0,0,1,212,239l23.35-5.89a.66.66,0,0,1,.62.14.68.68,0,0,1,.25.58l-.93,14.71a.71.71,0,0,1-.33.54A.62.62,0,0,1,234.57,249.16Zm-20.13-9.36,19.49,7.66.81-12.79Z"/><path class="cls-4_note-taking-1-99 targetColor" d="M348.72,255.74l-114.15-7.28a19.46,19.46,0,0,1,.93-14.7L349.66,241Z" style="fill: rgb(99, 102, 241);"/><path class="cls-2_note-taking-1-99" d="M348.72,256.44h-.05l-114.15-7.28a.7.7,0,0,1-.62-.47,20.18,20.18,0,0,1,1-15.23.72.72,0,0,1,.68-.4l114.15,7.28a.68.68,0,0,1,.65.74l-.93,14.7a.68.68,0,0,1-.24.48A.67.67,0,0,1,348.72,256.44ZM235.1,247.8l113,7.19.84-13.3-113-7.2a21.21,21.21,0,0,0-1.66,6.58A21.52,21.52,0,0,0,235.1,247.8Z"/><path class="cls-1_note-taking-1-99" d="M352.08,241.73h19.46a0,0,0,0,1,0,0v14.73a0,0,0,0,1,0,0H352.08a2.92,2.92,0,0,1-2.92-2.92v-8.9A2.92,2.92,0,0,1,352.08,241.73Z" transform="translate(704.14 520.6) rotate(-176.35)"/><path class="cls-2_note-taking-1-99" d="M367.24,257.61h-.31l-18.26-1.16a.71.71,0,0,1-.65-.75L349,241a.67.67,0,0,1,.74-.65L368,241.5a4.79,4.79,0,0,1,4.47,5.08l-.42,6.55a4.79,4.79,0,0,1-4.77,4.48Zm-17.78-2.53L367,256.2a3.44,3.44,0,0,0,2.45-.83,3.39,3.39,0,0,0,1.14-2.33l.42-6.55a3.39,3.39,0,0,0-3.17-3.59l-17.55-1.12Z"/><rect class="cls-2_note-taking-1-99" x="353.08" y="241.33" width="2.1" height="14.73" transform="translate(16.53 -22.01) rotate(3.65)"/><rect class="cls-2_note-taking-1-99" x="357.24" y="241.6" width="2.1" height="14.73" transform="translate(16.56 -22.28) rotate(3.65)"/><polygon class="cls-4_note-taking-1-99 targetColor" points="220.26 237.6 219.94 242.71 212.15 239.65 220.26 237.6" style="fill: rgb(99, 102, 241);"/><path class="cls-2_note-taking-1-99" d="M219.94,243.41a.58.58,0,0,1-.26,0l-7.78-3.06a.7.7,0,0,1-.45-.69A.72.72,0,0,1,212,239l8.11-2a.67.67,0,0,1,.62.14.71.71,0,0,1,.25.58l-.33,5.11a.68.68,0,0,1-.32.54A.62.62,0,0,1,219.94,243.41Zm-5.5-3.61,4.86,1.91.2-3.19Z"/><path class="cls-1_note-taking-1-99" d="M273,269.74s-21.8-9.08-26.8-12.59c-8.12-5.71,1.22-17.57,7-16.14,4.08,1,26.06,8.59,30.57,10.34"/><path class="cls-2_note-taking-1-99" d="M273,270.44a.65.65,0,0,1-.27-.05c-.89-.37-21.93-9.16-26.93-12.67-3.47-2.44-4.41-6.37-2.51-10.53s6.32-7.78,10-6.86c4,1,26.09,8.6,30.65,10.36a.71.71,0,0,1,.4.91.71.71,0,0,1-.91.4c-4.54-1.76-26.48-9.33-30.47-10.31-2.67-.66-6.7,2.24-8.45,6.08-.76,1.68-2.09,5.9,2,8.8C251.43,260,273,269,273.22,269.1a.7.7,0,0,1-.27,1.34Z"/><polygon class="cls-2_note-taking-1-99" points="426.89 396.29 397.84 303.95 329.52 322.83 346.32 396.29 426.89 396.29"/><path class="cls-2_note-taking-1-99" d="M426.89,397H346.32a.7.7,0,0,1-.68-.55L328.84,323a.7.7,0,0,1,.5-.83l68.31-18.88a.7.7,0,0,1,.85.46l29.06,92.34a.69.69,0,0,1-.1.62A.7.7,0,0,1,426.89,397Zm-80-1.4h79.06l-28.57-90.78-67,18.52Z"/></g><g id="wristwatch_note-taking-1-99"><rect class="cls-1_note-taking-1-99" x="330.75" y="334.93" width="81.71" height="18.81" rx="2.84" transform="translate(-68.65 93.68) rotate(-13.16)"/><path class="cls-2_note-taking-1-99" d="M336.92,362.69a4.68,4.68,0,0,1-4.54-3.62l-2.48-10.56a4.7,4.7,0,0,1,3.5-5.62l71.81-16.8a4.69,4.69,0,0,1,5.62,3.49l2.47,10.57a4.69,4.69,0,0,1-3.49,5.62l-.16-.68.16.68L338,362.56A4.43,4.43,0,0,1,336.92,362.69Zm69.35-35.32a3.18,3.18,0,0,0-.74.09l-71.81,16.79a3.28,3.28,0,0,0-2.45,3.94l2.47,10.56a3.28,3.28,0,0,0,3.94,2.45l71.81-16.8a3.2,3.2,0,0,0,2-1.46,3.24,3.24,0,0,0,.4-2.47l-2.47-10.57A3.28,3.28,0,0,0,406.27,327.37Z"/><circle class="cls-1_note-taking-1-99" cx="374.75" cy="342.58" r="18.52"/><path class="cls-2_note-taking-1-99" d="M374.75,361.79A19.22,19.22,0,1,1,394,342.58,19.24,19.24,0,0,1,374.75,361.79Zm0-37a17.82,17.82,0,1,0,17.82,17.82A17.84,17.84,0,0,0,374.75,324.76Z"/><path class="cls-3_note-taking-1-99" d="M374.75,345a.71.71,0,0,1-.69-.62c-.18-1.4-1.05-8.46-1.05-9.06a.7.7,0,0,1,1.4,0h0c0,.4.52,4.72.91,7.91l11.87-5.93a.71.71,0,0,1,.94.31.69.69,0,0,1-.31.94L375.06,345A.65.65,0,0,1,374.75,345Zm-.34-9.68h0Z"/></g></svg>